<?xml version="1.0" encoding="utf-8"?>
<svg id="Group_30" data-name="Group 30" xmlns="http://www.w3.org/2000/svg" width="37.536" height="34.618" viewBox="0 0 37.536 34.618">
  <path id="Path_15" data-name="Path 15" d="M448.7,385.81l-6.732-5a1.318,1.318,0,0,0-1.526,0l-6.672,5a.545.545,0,1,0,.654.873l6.672-5a.193.193,0,0,1,.222,0l6.732,5a.545.545,0,0,0,.651-.876Zm0,0" transform="translate(-422.24 -376.867)" fill="#a5281b"/>
  <path id="Path_16" data-name="Path 16" d="M371.082,368.707h-7.559c-.417,0-.384-.345-.384-.345v-9.646s-.021-.241.263-.241h1.07a.784.784,0,0,0,.5-1.443l-2.059-1.6a.366.366,0,0,1-.114-.26v-3.617a1.046,1.046,0,0,0-1.045-1.045H359.3a1.046,1.046,0,0,0-1.045,1.045v.087c0,.2-.139.061-.139.061l-4.449-3.464a1.172,1.172,0,0,0-1.411,0l-11.3,8.8a.784.784,0,0,0,.5,1.443h1.15c.2,0,.183.218.183.218v9.776s.032.237-.32.237h-8.015a.456.456,0,0,0-.454.454v13a.456.456,0,0,0,.454.454h.454a.456.456,0,0,0,.454-.454V370.525a.456.456,0,0,1,.454-.454h33.9a.456.456,0,0,1,.454.454v11.639a.456.456,0,0,0,.454.454h.454a.456.456,0,0,0,.454-.454v-13a.456.456,0,0,0-.454-.454Zm-11.461-16.756a.08.08,0,0,1,.079-.081h1.63a.1.1,0,0,1,.1.1v1.986c0,.125-.069.063-.069.063l-1.7-1.41a.131.131,0,0,1-.043-.091v-.571Zm-8.369,13.378a2.087,2.087,0,0,1,.466-1.309,1.542,1.542,0,0,1,1.171-.414,1.652,1.652,0,0,1,1.777,1.737c0,.2,0,.534,0,.736v2.356s.015.272-.32.272H351.5c-.243,0-.231-.187-.231-.187V366.08c0-.208-.005-.545-.013-.75Zm5.083,3.378a.28.28,0,0,1-.31-.282V366.08c0-.2,0-.521,0-.719a3.381,3.381,0,0,0-.894-2.267,3.028,3.028,0,0,0-2.246-.85,2.866,2.866,0,0,0-2.151.829,3.374,3.374,0,0,0-.849,2.3c.007.189.012.511.012.7v2.448a.177.177,0,0,1-.2.18h-5.281a.243.243,0,0,1-.271-.249v-10.3a1.129,1.129,0,0,0-.9-1.035c-.138-.042,0-.146,0-.146l9.5-7.393a.283.283,0,0,1,.424-.008l9.468,7.372s.224.145-.014.183a1.034,1.034,0,0,0-.849,1.027v10.2a.331.331,0,0,1-.373.353Zm0,0" transform="translate(-334 -348)" fill="#a5281b"/>
  <path id="Path_17" data-name="Path 17" d="M397.086,561.617h-3.574a1.1,1.1,0,0,0-.744.35l-2.256,2.727c-.159.193-.356.157-.437-.08l-1.129-3.3a.547.547,0,0,0-.594-.349l-3.142.567a.449.449,0,0,1-.522-.367l-.647-3.861c-.041-.246-.2-.286-.352-.088l-5.7,7.392c-.153.2-.337.164-.409-.075l-1.868-6.157c-.072-.239-.265-.28-.427-.09l-2.923,3.412a1.126,1.126,0,0,1-.75.345h-3.884a.456.456,0,0,0-.454.454v.182a.456.456,0,0,0,.454.454h4.386a1.127,1.127,0,0,0,.75-.345l1.955-2.282c.163-.19.355-.15.428.09l1.9,6.28c.072.239.256.273.409.075l5.463-7.089c.153-.2.311-.159.352.088l.416,2.484a.449.449,0,0,0,.522.367l3.306-.6a.547.547,0,0,1,.594.349l1.456,4.253c.081.237.277.273.437.08l3.17-3.832a1.1,1.1,0,0,1,.744-.35h3.061a.456.456,0,0,0,.454-.454v-.182a.457.457,0,0,0-.455-.454Zm0,0" transform="translate(-363.496 -533.338)" fill="#a5281b"/>
</svg>
