<?xml version="1.0" encoding="utf-8"?>
<svg xmlns="http://www.w3.org/2000/svg" width="32.571" height="32.57" viewBox="0 0 32.571 32.57">
  <g id="Group_34" data-name="Group 34" transform="translate(0.25 0.251)">
    <path id="Path_20" data-name="Path 20" d="M190.114,87.537,175.452,102.2a.476.476,0,1,0,.674.674L190.787,88.21a.476.476,0,0,0-.674-.674Z" transform="translate(-164.332 -81.923)" fill="#a5281b" stroke="#a5281b" stroke-width="0.5"/>
    <path id="Path_21" data-name="Path 21" d="M31.955,4.381A5.189,5.189,0,0,0,27.69.116a9.4,9.4,0,0,0-4.822.526,11.657,11.657,0,0,0-1.223.531.468.468,0,0,0-.05.026,12.349,12.349,0,0,0-5.813,6.416q-.048.119-.093.237c-.042-.32-.077-.665-.1-1.024a.491.491,0,0,0-.209-.382.477.477,0,0,0-.609.063A32.159,32.159,0,0,0,12.426,9.2a.48.48,0,0,0-.045.058A35.281,35.281,0,0,0,6.458,21.794c-.737,2.495-1.32,4.465-2.482,5.627h0L.14,31.257a.476.476,0,1,0,.674.674L4.65,28.095c1.162-1.162,3.133-1.744,5.627-2.481a40.735,40.735,0,0,0,8.9-3.51.493.493,0,0,0,.258-.425.476.476,0,0,0-.373-.463,15.326,15.326,0,0,1-1.667-.466,15.239,15.239,0,0,0,1.58-.324,17.447,17.447,0,0,0,8.933-5.632c.271-.317.542-.646.808-.978.227-.284.446-.571.65-.853a.49.49,0,0,0-.083-.674.476.476,0,0,0-.676.1c-.2.275-.412.555-.634.833h0a5.183,5.183,0,0,1-1.8,1.432,24.974,24.974,0,0,1-6.361,2.1.476.476,0,1,0,.14.942,24.279,24.279,0,0,0,5.287-1.583,16.318,16.318,0,0,1-6.5,3.387,9.741,9.741,0,0,1-3.266.4.476.476,0,0,0-.332.866,9.837,9.837,0,0,0,2.522,1.07A42.816,42.816,0,0,1,10.007,24.7c-1.049.31-2.01.594-2.871.909l3.134-3.134a.476.476,0,0,0-.011-.684.49.49,0,0,0-.677.024l-3.12,3.12c.314-.861.6-1.822.908-2.871A44.81,44.81,0,0,1,9.884,15.12q.506-1.058,1.087-2.061a15.426,15.426,0,0,0-.8,4.242.489.489,0,0,0,.418.494.476.476,0,0,0,.535-.473,18.525,18.525,0,0,1,1.228-5.387,11.753,11.753,0,0,1,2.373-3.985l.016-.018a16.057,16.057,0,0,0,.4,2.088.476.476,0,0,0,.927-.043,10.442,10.442,0,0,1,.6-2.009,11.589,11.589,0,0,1,2.891-4.2,8.19,8.19,0,0,0-1.291,4.109.486.486,0,0,0,.418.487.476.476,0,0,0,.535-.473,8.645,8.645,0,0,1,2.127-5.018A4.261,4.261,0,0,1,23.185,1.54l.011,0a8.465,8.465,0,0,1,4.337-.481,4.237,4.237,0,0,1,3.482,3.482,9.558,9.558,0,0,1-1.473,6.418.476.476,0,0,0,.232.682.483.483,0,0,0,.6-.212A10.469,10.469,0,0,0,31.955,4.381Z" transform="translate(0 -0.001)" fill="#a5281b" stroke="#a5281b" stroke-width="0.5"/>
  </g>
</svg>
