<?xml version="1.0" encoding="utf-8"?>
<svg xmlns="http://www.w3.org/2000/svg" width="40.069" height="29.917" viewBox="0 0 40.069 29.917">
  <g id="Group_6" data-name="Group 6" transform="translate(0.25)">
    <path id="Path_11" data-name="Path 11" d="M68.369-154.662a1.692,1.692,0,0,0-1.736.024.582.582,0,0,0-.071.053l-7.61,6.437H52.979a.562.562,0,0,0-.562.562v10.671a.566.566,0,0,0,.164.4.571.571,0,0,0,.4.164l5.959,0,7.605,6.989a1.018,1.018,0,0,0,.09.065,1.72,1.72,0,0,0,.889.253,1.739,1.739,0,0,0,.847-.229,1.748,1.748,0,0,0,.9-1.546v-22.291a1.749,1.749,0,0,0-.9-1.546Zm-.228,23.837a.645.645,0,0,1-.323.57.588.588,0,0,1-.563.014l-7.539-6.925v-2.558a.56.56,0,0,0-.559-.562.561.561,0,0,0-.563.562v2.243l-5.054,0v-9.547H58.6v2.245a.562.562,0,0,0,.563.563.561.561,0,0,0,.559-.563v-2.548l7.53-6.371a.593.593,0,0,1,.572.011.646.646,0,0,1,.323.57Zm0,0" transform="translate(-52.417 156.79)" fill="#a5281b" stroke="#a5281b" stroke-width="0.5"/>
    <path id="Path_12" data-name="Path 12" d="M77.416-142.7a10.939,10.939,0,0,0-7.429-10.361.562.562,0,0,0-.714.35.561.561,0,0,0,.351.713,9.819,9.819,0,0,1,6.667,9.3,9.826,9.826,0,0,1-6.653,9.3.561.561,0,0,0-.35.713.564.564,0,0,0,.532.382.619.619,0,0,0,.181-.03A10.951,10.951,0,0,0,77.416-142.7Zm0,0" transform="translate(-46.945 157.241)" fill="#a5281b" stroke="#a5281b" stroke-width="0.5"/>
    <path id="Path_13" data-name="Path 13" d="M72.613-155.322a.563.563,0,0,0-.737.3.559.559,0,0,0,.3.734,13.188,13.188,0,0,1,8.046,12.158,13.117,13.117,0,0,1-8.432,12.307.562.562,0,0,0-.321.727.561.561,0,0,0,.524.357.574.574,0,0,0,.2-.036,14.237,14.237,0,0,0,9.151-13.354,14.308,14.308,0,0,0-8.732-13.192Zm0,0" transform="translate(-46.396 156.671)" fill="#a5281b" stroke="#a5281b" stroke-width="0.5"/>
    <path id="Path_14" data-name="Path 14" d="M72.978-143.32A7.617,7.617,0,0,0,67.5-150.6a.561.561,0,0,0-.694.384.563.563,0,0,0,.384.7,6.482,6.482,0,0,1,4.662,6.2,6.489,6.489,0,0,1-4.662,6.2.558.558,0,0,0-.384.693.559.559,0,0,0,.538.407.52.52,0,0,0,.156-.022,7.615,7.615,0,0,0,5.476-7.278Zm0,0" transform="translate(-47.562 157.861)" fill="#a5281b" stroke="#a5281b" stroke-width="0.5"/>
    <rect id="Rectangle_7" data-name="Rectangle 7" width="1.772" height="29.917" rx="0.708" transform="translate(38.047)" fill="#a5281b"/>
  </g>
</svg>
