<svg xmlns="http://www.w3.org/2000/svg" width="47.001" height="33.998" viewBox="0 0 47.001 33.998">
  <g id="Group_151" data-name="Group 151" transform="translate(-937 -291.001)">
    <path id="Subtraction_2" data-name="Subtraction 2" d="M9169-3573.484h-20.688c-4.112-1.882-9.211-4.7-10.149-7.428-1.046-3.046-3.693-4.39-7.626-5.571H9169v13Zm-22,0h-23v-13h1.585c4.2,1.823,6.375,3.409,6.457,4.715.074,1.193,1.789,2.638,5.1,4.293a85.421,85.421,0,0,0,9.865,3.989Z" transform="translate(-8186 3897.483)" fill="none" stroke="#a5281b" stroke-width="2"/>
    <path id="Subtraction_1" data-name="Subtraction 1" d="M9162-3567.667h-45v-13h31.094c2.251,1.533,4.2,2.31,5.789,2.31a4.208,4.208,0,0,0,1.117-.145,3.948,3.948,0,0,1,1.048-.144c2.347,0,4.414,2.2,5.952,4.108v6.867Z" transform="translate(-8179 3872.667)" fill="none" stroke="#a5281b" stroke-width="2"/>
  </g>
</svg>
