<svg xmlns="http://www.w3.org/2000/svg" xmlns:xlink="http://www.w3.org/1999/xlink" width="42.5" height="33.24" viewBox="0 0 42.5 33.24">
  <defs>
    <clipPath id="clip-path">
      <rect id="Rectangle_54" data-name="Rectangle 54" width="42.5" height="33.24" fill="#a5281b"/>
    </clipPath>
  </defs>
  <g id="Group_140" data-name="Group 140" transform="translate(-335 -367)">
    <g id="Group_139" data-name="Group 139" transform="translate(335 367)">
      <g id="Group_138" data-name="Group 138" clip-path="url(#clip-path)">
        <path id="Path_97" data-name="Path 97" d="M346.734,386.109a.882.882,0,0,0,.759.75l5.734.748a.882.882,0,0,0,.229-1.75l-5.07-.661-1.5-10.434,7.513-3.309.994,6.927,1.3,9.028h0l.243,1.688a.882.882,0,0,0,.873.757.914.914,0,0,0,.125-.009l4.23-.607a.882.882,0,0,0,.748-1l-.147-1.026,8.578-3.777a.883.883,0,0,0,.518-.933l-1.2-8.345a.882.882,0,0,0-1.747.25l1.1,7.682L362.5,385.4l-1.5-10.431-.627-4.373,8.805,1.149a.882.882,0,0,0,.228-1.75l-9.294-1.213-.147-1.026a.883.883,0,0,0-1-.749l-4.23.607a.882.882,0,0,0-.748,1l.147,1.026-8.578,3.778a.882.882,0,0,0-.518.933Zm11.616-17.229,1.014,7.067,1.558,10.853h0l.117.815-2.483.356-1.345-9.368-1.228-8.552h0l-.117-.815Zm0,0" transform="translate(-343.561 -366.999)" fill="#a5281b"/>
      </g>
    </g>
    <path id="Path_98" data-name="Path 98" d="M371.35,424.414h-6.4a.883.883,0,0,0-.882.882v14.769a.882.882,0,0,0,.882.883h10.578a3.162,3.162,0,0,1-2.764,2.3,3.968,3.968,0,0,0-6.928.012H347.086a3.968,3.968,0,0,0-6.935,0h-3.386v-2.312h23.378a.882.882,0,1,0,0-1.765h-24.26a.883.883,0,0,0-.882.882v4.077a.883.883,0,0,0,.882.882h3.77c0,.056,0,.111,0,.168a3.971,3.971,0,1,0,7.942,0c0-.056,0-.112,0-.168h17.746c0,.056,0,.111,0,.168a3.971,3.971,0,1,0,7.942,0c0-.077,0-.154-.007-.23a4.925,4.925,0,0,0,4.14-4.856v-9.641a6.059,6.059,0,0,0-6.052-6.051ZM343.619,447.4a2.206,2.206,0,1,1,2.206-2.206,2.209,2.209,0,0,1-2.206,2.206Zm25.68,0a2.206,2.206,0,1,1,2.206-2.206A2.209,2.209,0,0,1,369.3,447.4Zm6.339-16.933v1.342h-6.475v-5.629h2.188a4.292,4.292,0,0,1,4.287,4.287Zm-9.809,8.717v-13H367.4v6.512a.883.883,0,0,0,.882.882h7.358v5.61Zm0,0" transform="translate(0 -48.97)" fill="#a5281b"/>
  </g>
</svg>
