<svg xmlns="http://www.w3.org/2000/svg" xmlns:xlink="http://www.w3.org/1999/xlink" width="38" height="47.377" viewBox="0 0 38 47.377">
  <defs>
    <clipPath id="clip-path">
      <rect id="Rectangle_57" data-name="Rectangle 57" width="38" height="47.377" fill="#a5281b"/>
    </clipPath>
  </defs>
  <g id="Group_149" data-name="Group 149" transform="translate(-287 -240)">
    <g id="Group_148" data-name="Group 148" transform="translate(287 240)">
      <g id="Group_147" data-name="Group 147" transform="translate(0)" clip-path="url(#clip-path)">
        <path id="Path_108" data-name="Path 108" d="M323.342,247.106h.79a.79.79,0,0,0,.79-.79v-2.369a.79.79,0,0,0-.79-.79h-4.738V240.79a.79.79,0,0,0-.79-.79H293.337a5.533,5.533,0,0,0-5.527,5.527v22.109a5.533,5.533,0,0,0,5.527,5.527h8.686v1.579h-.79v1.579h.79V277.9h-.79v1.579h.79v.79h-.79a.79.79,0,0,0-.79.79h-6.337a3.948,3.948,0,1,0,0,4.738h6.337a.79.79,0,0,0,.79.79h7.9a.79.79,0,0,0,.79-.79h6.337a3.948,3.948,0,1,0,0-4.738h-6.337a.79.79,0,0,0-.79-.79h-.79v-.79h.79V277.9h-.79v-1.579h.79v-1.579h-.79v-1.579H318.6a.79.79,0,0,0,.79-.79v-2.369h4.738a.79.79,0,0,0,.79-.79v-2.369a.79.79,0,0,0-.79-.79h-.79ZM290.968,285.8a2.369,2.369,0,1,1,2.369-2.369,2.369,2.369,0,0,1-2.369,2.369Zm3.869-1.579a3.946,3.946,0,0,0,0-1.579h5.606v1.579Zm24.557-3.158a2.369,2.369,0,1,1-2.369,2.369,2.369,2.369,0,0,1,2.369-2.369Zm-3.869,1.579a3.947,3.947,0,0,0,0,1.579h-5.606v-1.579Zm6.238-30.795h-20.53v-1.579H311.5a.789.789,0,0,0,.723-.474l1.172-2.685h8.37Zm-22.109,14.213h-3.948V247.106h15.967l-.691,1.579H300.444a.79.79,0,0,0-.79.79Zm23.688-20.53H299.654v-.79h23.688Zm-15,39.481h-6.317v-3.158h6.317Zm-1.579-4.738H303.6v-.79h3.158Zm0-2.369H303.6v-1.579h3.158Zm0-3.158H303.6v-1.579h3.158Zm11.055-3.158H293.337a3.953,3.953,0,0,1-3.948-3.948V245.527a3.953,3.953,0,0,1,3.948-3.948h24.478v1.579H298.865a.79.79,0,0,0-.79.79v1.579h-3.158a.79.79,0,0,0-.79.79v20.53a.79.79,0,0,0,.79.79h3.158v1.579a.79.79,0,0,0,.79.79h18.951Zm5.527-3.158H299.654v-.79h23.688Zm-1.579-2.369h-20.53V253.423h20.53Zm0,0" transform="translate(-287 -240)" fill="#a5281b"/>
      </g>
    </g>
    <rect id="Rectangle_58" data-name="Rectangle 58" width="3.158" height="1.579" transform="translate(302.813 255.003)" fill="#a5281b"/>
    <rect id="Rectangle_59" data-name="Rectangle 59" width="9.475" height="1.579" transform="translate(302.813 258.161)" fill="#a5281b"/>
  </g>
</svg>
