<svg xmlns="http://www.w3.org/2000/svg" width="36.877" height="36.876" viewBox="0 0 36.877 36.876">
  <g id="Group_34" data-name="Group 34" transform="translate(0.25 0.251)">
    <path id="Path_20" data-name="Path 20" d="M192.1,87.556l-16.63,16.63a.54.54,0,1,0,.764.764l16.63-16.63a.54.54,0,0,0-.764-.764Z" transform="translate(-162.857 -81.188)" fill="#a5281b" stroke="#a5281b" stroke-width="0.5"/>
    <path id="Path_21" data-name="Path 21" d="M36.246,4.97A5.886,5.886,0,0,0,31.408.132a10.667,10.667,0,0,0-5.469.6,13.222,13.222,0,0,0-1.388.6.531.531,0,0,0-.057.029A14.008,14.008,0,0,0,17.9,8.637q-.054.135-.105.269c-.047-.363-.088-.754-.112-1.162a.557.557,0,0,0-.237-.433.541.541,0,0,0-.691.071,36.476,36.476,0,0,0-2.66,3.056.544.544,0,0,0-.051.066A40.019,40.019,0,0,0,7.325,24.72c-.836,2.83-1.5,5.065-2.815,6.383h0L.159,35.454a.54.54,0,1,0,.764.764l4.351-4.352c1.318-1.318,3.553-1.978,6.383-2.815a46.2,46.2,0,0,0,10.095-3.981.559.559,0,0,0,.293-.482.54.54,0,0,0-.423-.526,17.384,17.384,0,0,1-1.891-.528,17.286,17.286,0,0,0,1.793-.367,19.79,19.79,0,0,0,10.132-6.389c.307-.36.615-.733.917-1.11.258-.323.506-.648.737-.967a.556.556,0,0,0-.095-.765.54.54,0,0,0-.767.112c-.225.312-.467.63-.72.945h0a5.879,5.879,0,0,1-2.04,1.625,28.327,28.327,0,0,1-7.215,2.387.54.54,0,1,0,.158,1.069,27.54,27.54,0,0,0,6-1.8,18.509,18.509,0,0,1-7.376,3.842,11.049,11.049,0,0,1-3.7.449.54.54,0,0,0-.376.982,11.158,11.158,0,0,0,2.861,1.214,48.565,48.565,0,0,1-8.682,3.249c-1.19.352-2.28.674-3.256,1.031l3.555-3.555a.54.54,0,0,0-.012-.776.555.555,0,0,0-.768.028L7.33,28.283c.357-.976.679-2.066,1.03-3.256a50.828,50.828,0,0,1,2.851-7.877q.573-1.2,1.233-2.337a17.5,17.5,0,0,0-.912,4.812.554.554,0,0,0,.474.561.54.54,0,0,0,.607-.536,21.012,21.012,0,0,1,1.393-6.111A13.331,13.331,0,0,1,16.7,9.019L16.716,9a18.213,18.213,0,0,0,.454,2.369.54.54,0,0,0,1.052-.049A11.844,11.844,0,0,1,18.9,9.04a13.145,13.145,0,0,1,3.279-4.765,9.29,9.29,0,0,0-1.465,4.661.551.551,0,0,0,.474.552.54.54,0,0,0,.606-.536,9.806,9.806,0,0,1,2.412-5.692A4.833,4.833,0,0,1,26.3,1.747l.013,0A9.6,9.6,0,0,1,31.23,1.2a4.805,4.805,0,0,1,3.95,3.95,10.841,10.841,0,0,1-1.671,7.279.54.54,0,0,0,.263.773.548.548,0,0,0,.677-.241A11.874,11.874,0,0,0,36.246,4.97Z" transform="translate(0 -0.001)" fill="#a5281b" stroke="#a5281b" stroke-width="0.5"/>
  </g>
</svg>
