<svg xmlns="http://www.w3.org/2000/svg" width="53.119" height="53.073" viewBox="0 0 53.119 53.073">
  <g id="Group_150" data-name="Group 150" transform="translate(0.197 0.198)">
    <path id="Path_110" data-name="Path 110" d="M2.773,44.114c.018,0,.036.006.054.009l.022,0h0a.806.806,0,0,0,.092.006h0a.787.787,0,0,0,.115-.009h.009a.794.794,0,0,0,.116-.027h0a.8.8,0,0,0,.243-.126l3.445-2.443a.8.8,0,1,0-.928-1.308l-1.9,1.349A22.769,22.769,0,0,1,23.252,23.619a.8.8,0,0,0-.215-1.589A24.369,24.369,0,0,0,2.523,41.018L1.494,39.255a.8.8,0,1,0-1.385.808L2.25,43.734A.8.8,0,0,0,2.773,44.114Z" transform="translate(0 -19.756)" fill="#a5281b" stroke="#a5281b" stroke-width="0.3"/>
    <path id="Path_111" data-name="Path 111" d="M41.252,299.743a.8.8,0,0,0-1.308.927l1.379,1.945a22.776,22.776,0,0,1-18.011-18.894.8.8,0,0,0-1.586.239,24.382,24.382,0,0,0,18.969,20.163l-1.714,1a.8.8,0,1,0,.808,1.385l3.672-2.141a.8.8,0,0,0,.25-1.156Z" transform="translate(-19.481 -253.893)" fill="#a5281b" stroke="#a5281b" stroke-width="0.3"/>
    <path id="Path_112" data-name="Path 112" d="M302.755,279.348l-2.141-3.672a.8.8,0,0,0-1.156-.25l-3.467,2.459a.8.8,0,1,0,.928,1.308l1.855-1.316a22.773,22.773,0,0,1-19.224,18.013.8.8,0,1,0,.215,1.589,24.379,24.379,0,0,0,20.55-19.134l1.055,1.81a.8.8,0,1,0,1.385-.808Z" transform="translate(-250.139 -246.931)" fill="#a5281b" stroke="#a5281b" stroke-width="0.3"/>
    <path id="Path_113" data-name="Path 113" d="M278.538,7.21a.8.8,0,0,0,.653-1.266l-1.284-1.811A22.766,22.766,0,0,1,295.852,23.67a.8.8,0,0,0,.8.706.786.786,0,0,0,.1-.006.8.8,0,0,0,.7-.892A24.369,24.369,0,0,0,278.3,2.577l1.859-1.084a.8.8,0,0,0-.808-1.385l-3.672,2.141a.8.8,0,0,0-.25,1.156l2.459,3.467A.8.8,0,0,0,278.538,7.21Z" transform="translate(-246.929 0)" fill="#a5281b" stroke="#a5281b" stroke-width="0.3"/>
    <path id="Path_114" data-name="Path 114" d="M172.894,244.535a.791.791,0,0,1-.747-1.049l4.226-12.241H168.38a.791.791,0,0,1-.649-1.242l3.088-4.439a.791.791,0,0,1,1.3.9l-2.224,3.2h7.589a.791.791,0,0,1,.748,1.049l-2.726,7.9,3.322-4.774a.791.791,0,0,1,1.3.9l-6.581,9.459A.791.791,0,0,1,172.894,244.535Z" transform="translate(-150.331 -202.032)" fill="#a5281b" stroke="#a5281b" stroke-width="0.3"/>
    <path id="Path_115" data-name="Path 115" d="M227.1,118.978a.791.791,0,0,1-.648-1.243l2.506-3.6h-7.589a.791.791,0,0,1-.748-1.049l2.726-7.9-3.635,5.224a.791.791,0,0,1-1.3-.9l6.894-9.909a.791.791,0,0,1,1.4.71l-4.226,12.241h7.993a.791.791,0,0,1,.649,1.242l-3.371,4.845A.79.79,0,0,1,227.1,118.978Z" transform="translate(-195.792 -89.041)" fill="#a5281b" stroke="#a5281b" stroke-width="0.3"/>
  </g>
</svg>
