<svg xmlns="http://www.w3.org/2000/svg" width="30.917" height="41.066" viewBox="0 0 30.917 41.066">
  <path id="Path_109" data-name="Path 109" d="M17.11-28.723a7.9,7.9,0,0,0,1.663,4.673A28.3,28.3,0,0,0,22.5-20.168q2.535,2.376,3.723,3.723a18.425,18.425,0,0,1,3.01,4.673,17.531,17.531,0,0,1,1.188,6.5,14.679,14.679,0,0,1-2.059,7.6,15.5,15.5,0,0,1-5.545,5.545,14.679,14.679,0,0,1-7.6,2.059A14.679,14.679,0,0,1,7.6,7.873,15.5,15.5,0,0,1,2.059,2.328,14.679,14.679,0,0,1,0-5.276a14.981,14.981,0,0,1,1.743-7.05A15.326,15.326,0,0,1,6.5-17.791a1.8,1.8,0,0,1,1.98-.079,1.785,1.785,0,0,1,1.03,1.663v8.4a3.066,3.066,0,0,0,.911,2.258,3.066,3.066,0,0,0,2.258.911,3.066,3.066,0,0,0,2.258-.911,3.066,3.066,0,0,0,.911-2.258,3.949,3.949,0,0,0-.554-1.822q-.317-.713-1.188-2.218a38.368,38.368,0,0,1-2.456-4.515,13.806,13.806,0,0,1-.871-5.941,17.211,17.211,0,0,1,2.852-7.446,1.657,1.657,0,0,1,1.307-.871,1.992,1.992,0,0,1,1.505.475A1.764,1.764,0,0,1,17.11-28.723ZM15.208,7.4a12.4,12.4,0,0,0,6.337-1.7,12.584,12.584,0,0,0,4.634-4.634,12.4,12.4,0,0,0,1.7-6.337,13.791,13.791,0,0,0-1.03-5.386A14.72,14.72,0,0,0,24.4-14.623a45.924,45.924,0,0,0-3.248-3.248,35.716,35.716,0,0,1-3.961-4.2,12.271,12.271,0,0,1-2.376-5.386,11.8,11.8,0,0,0-1.743,5.624,12.341,12.341,0,0,0,.951,4.594,41.275,41.275,0,0,0,2.139,3.961q1.109,1.9,1.505,2.772a6.41,6.41,0,0,1,.713,2.693,5.5,5.5,0,0,1-1.663,4.04,5.5,5.5,0,0,1-4.04,1.663,5.5,5.5,0,0,1-4.04-1.663,5.5,5.5,0,0,1-1.663-4.04v-7.6A11.972,11.972,0,0,0,3.723-10.9,14.158,14.158,0,0,0,2.535-5.276a12.4,12.4,0,0,0,1.7,6.337A12.584,12.584,0,0,0,8.872,5.695,12.4,12.4,0,0,0,15.208,7.4Z" transform="translate(0.25 30.884)" fill="#a5281b" stroke="#a5281b" stroke-width="0.5"/>
</svg>
