<svg xmlns="http://www.w3.org/2000/svg" width="48.494" height="38.34" viewBox="0 0 48.494 38.34">
  <g id="Group_141" data-name="Group 141" transform="translate(-21.662 -70.742)">
    <path id="Path_99" data-name="Path 99" d="M180.754,88.112a8.685,8.685,0,1,0-8.685-8.685A8.695,8.695,0,0,0,180.754,88.112Zm0-15.74a7.055,7.055,0,1,1-7.055,7.055A7.063,7.063,0,0,1,180.754,72.372Z" transform="translate(-134.843)" fill="#a5281b"/>
    <ellipse id="Ellipse_29" data-name="Ellipse 29" cx="1.499" cy="1.499" rx="1.499" ry="1.499" transform="matrix(0.998, -0.055, 0.055, 0.998, 24.968, 100.844)" fill="#a5281b"/>
    <path id="Path_100" data-name="Path 100" d="M69.978,225.686l-.025-.062a5.919,5.919,0,0,0-7.44-3.385l-6.1,2.117a5.6,5.6,0,0,0-5.461-1.622l-6.477,1.648a5.794,5.794,0,0,1-4.376-.639,11.83,11.83,0,0,0-6.075-1.679h-.008l-2.58,0v-2.442a.815.815,0,0,0-.815-.815H22.477a.815.815,0,0,0-.815.815V241.01a.815.815,0,0,0,.815.815H30.62a.815.815,0,0,0,.815-.815v-4.035h2.59a10.3,10.3,0,0,1,4.157.87l1.616.707a11,11,0,0,0,9.22-.176c5.784-2.8,16.043-7.766,19.765-9.564A2.458,2.458,0,0,0,69.978,225.686ZM29.805,240.2H23.292V220.437h6.513V240.2Zm38.267-12.85c-3.722,1.8-13.982,6.765-19.766,9.565a9.376,9.376,0,0,1-7.856.15l-1.616-.707a11.921,11.921,0,0,0-4.81-1.007h-2.59V223.695l2.582,0h.007a10.2,10.2,0,0,1,5.238,1.448,7.436,7.436,0,0,0,5.615.821l6.477-1.648a3.961,3.961,0,0,1,4.6,2.294l.14.337h0l.093.222.058.138L45.087,231.8l.609,1.512,11.926-4.8,0,0,.005,0,.034-.016.035-.017.041-.024.028-.017.043-.032.021-.016c.015-.012.028-.025.042-.037l.018-.016c.013-.013.025-.027.037-.041l.017-.019c.011-.014.021-.028.032-.042l.016-.022c.009-.014.018-.028.026-.043l.015-.026c.008-.015.015-.031.022-.046s.008-.016.011-.024v0c.008-.019.015-.039.022-.06l.005-.015a.812.812,0,0,0,0-.474q-.012-.039-.028-.077l-.6-1.451,0-.01-.095-.228,5.682-1.972a4.291,4.291,0,0,1,5.393,2.454l.025.062A.813.813,0,0,1,68.072,227.345Z" transform="translate(0 -132.744)" fill="#a5281b"/>
    <path id="Path_101" data-name="Path 101" d="M229.528,124.944a.371.371,0,0,1-.257-.1l-4.1-3.882a.386.386,0,0,1-.116-.27.373.373,0,0,1,.107-.268.378.378,0,0,1,.266-.115h1.643a2.1,2.1,0,0,0,2.053-1.719h-3.7a.375.375,0,1,1,0-.749h3.7a2.083,2.083,0,0,0-2.052-1.692h-1.644a.375.375,0,1,1,0-.749h5.74a.375.375,0,1,1,0,.749h-2.175a2.843,2.843,0,0,1,.889,1.692h1.286a.375.375,0,1,1,0,.749h-1.286a2.828,2.828,0,0,1-2.813,2.469h-.7l3.422,3.237a.377.377,0,0,1-.257.651Z" transform="translate(-182.34 -40.033)" fill="#a5281b"/>
    <path id="Path_102" data-name="Path 102" d="M232.331,116.667a.272.272,0,0,0-.271-.271h-5.74a.271.271,0,1,0,0,.543h1.644a2.192,2.192,0,0,1,2.173,1.9h-3.817a.271.271,0,1,0,0,.543h3.817a2.2,2.2,0,0,1-2.173,1.926h-1.641a.276.276,0,0,0-.271.279.28.28,0,0,0,.084.2l4.1,3.882a.27.27,0,0,0,.382-.011h0a.277.277,0,0,0-.011-.388L227,121.849h.96a2.74,2.74,0,0,0,2.721-2.469h1.378a.271.271,0,0,0,0-.543h-1.378a2.716,2.716,0,0,0-1.088-1.9h2.466a.272.272,0,0,0,.271-.271Z" transform="translate(-183.237 -40.93)" fill="#a5281b"/>
  </g>
</svg>
