<svg xmlns="http://www.w3.org/2000/svg" width="39.439" height="36.975" viewBox="0 0 39.439 36.975">
  <g id="Group_145" data-name="Group 145" transform="translate(-224 -240)">
    <path id="Path_103" data-name="Path 103" d="M262.3,602.887a5.935,5.935,0,0,0-3.74,1.261,3.922,3.922,0,0,1-4.907,0,6.177,6.177,0,0,0-7.481,0,3.922,3.922,0,0,1-4.907,0,6.177,6.177,0,0,0-7.481,0,3.922,3.922,0,0,1-4.907,0,5.933,5.933,0,0,0-3.74-1.261A1.138,1.138,0,0,0,224,604.025v6.747a1.138,1.138,0,0,0,1.138,1.138H262.3a1.138,1.138,0,0,0,1.138-1.138v-6.747a1.138,1.138,0,0,0-1.138-1.138Zm-1.138,6.747H226.275v-4.322a4.7,4.7,0,0,1,1.316.713,6.176,6.176,0,0,0,7.481,0,3.922,3.922,0,0,1,4.907,0,6.176,6.176,0,0,0,7.481,0,3.922,3.922,0,0,1,4.907,0,6.176,6.176,0,0,0,7.481,0,4.7,4.7,0,0,1,1.316-.713Zm0,0" transform="translate(0 -334.934)" fill="#a5281b"/>
    <path id="Path_104" data-name="Path 104" d="M318.908,260.935a3.923,3.923,0,0,0-1.857,3.186,1.138,1.138,0,0,0,2.275,0c0-.552.276-.825,1.006-1.411a3.661,3.661,0,0,0,0-6.372c-.731-.586-1.006-.86-1.006-1.411s.276-.825,1.006-1.411a3.66,3.66,0,0,0,0-6.371c-.73-.586-1.006-.86-1.006-1.411s.276-.825,1.006-1.411a3.924,3.924,0,0,0,1.858-3.186,1.138,1.138,0,1,0-2.275,0c0,.551-.276.825-1.006,1.411a3.66,3.66,0,0,0,0,6.371c.73.586,1.006.86,1.006,1.411s-.276.825-1.006,1.411a3.661,3.661,0,0,0,0,6.371c.731.586,1.006.86,1.006,1.411s-.276.825-1.006,1.411Zm0,0" transform="translate(-85.883)" fill="#a5281b"/>
    <path id="Path_105" data-name="Path 105" d="M405.3,260.935a3.923,3.923,0,0,0-1.858,3.186,1.138,1.138,0,0,0,2.275,0c0-.552.276-.825,1.007-1.411a3.661,3.661,0,0,0,0-6.372c-.73-.586-1.007-.86-1.007-1.411s.276-.825,1.007-1.411a3.66,3.66,0,0,0,0-6.371c-.73-.586-1.007-.86-1.007-1.411s.276-.825,1.007-1.411a3.924,3.924,0,0,0,1.857-3.186,1.138,1.138,0,1,0-2.275,0c0,.551-.276.825-1.006,1.411a3.66,3.66,0,0,0,0,6.371c.73.586,1.006.86,1.006,1.411s-.276.825-1.006,1.411a3.66,3.66,0,0,0,0,6.371c.73.586,1.006.86,1.006,1.411s-.276.825-1.006,1.411Zm0,0" transform="translate(-165.622)" fill="#a5281b"/>
    <path id="Path_106" data-name="Path 106" d="M491.7,260.935a3.923,3.923,0,0,0-1.857,3.186,1.138,1.138,0,0,0,2.275,0c0-.552.276-.825,1.006-1.411a3.661,3.661,0,0,0,0-6.372c-.731-.586-1.006-.86-1.006-1.411s.276-.825,1.006-1.411a3.66,3.66,0,0,0,0-6.371c-.73-.586-1.006-.86-1.006-1.411s.276-.825,1.006-1.411a3.924,3.924,0,0,0,1.858-3.186,1.138,1.138,0,1,0-2.275,0c0,.551-.276.825-1.006,1.411a3.66,3.66,0,0,0,0,6.371c.73.586,1.006.86,1.006,1.411s-.276.825-1.006,1.411a3.661,3.661,0,0,0,0,6.371c.731.586,1.006.86,1.006,1.411s-.276.825-1.006,1.411Zm0,0" transform="translate(-245.366)" fill="#a5281b"/>
    <path id="Path_107" data-name="Path 107" d="M578.1,260.935a3.923,3.923,0,0,0-1.857,3.186,1.138,1.138,0,1,0,2.275,0c0-.552.276-.825,1.007-1.411a3.661,3.661,0,0,0,0-6.372c-.73-.586-1.007-.86-1.007-1.411s.276-.825,1.007-1.411a3.66,3.66,0,0,0,0-6.371c-.73-.586-1.007-.86-1.007-1.411s.276-.825,1.007-1.411a3.924,3.924,0,0,0,1.857-3.186,1.138,1.138,0,1,0-2.275,0c0,.551-.276.825-1.006,1.411a3.66,3.66,0,0,0,0,6.371c.731.586,1.006.86,1.006,1.411s-.276.825-1.006,1.411a3.661,3.661,0,0,0,0,6.371c.731.586,1.006.86,1.006,1.411s-.276.825-1.006,1.411Zm0,0" transform="translate(-325.105)" fill="#a5281b"/>
  </g>
</svg>
